<svg width="64" height="64" viewBox="0 0 64 64" fill="none" xmlns="http://www.w3.org/2000/svg">
<rect width="64" height="64" rx="16" fill="#9233E9"/>
<path d="M45.3191 48.8889C43.3564 48.8889 41.6735 48.6079 40.2702 48.046C38.8764 47.4939 37.7671 46.7398 36.9422 45.7835C36.1173 44.8273 35.5816 43.7527 35.3351 42.5599L40.9387 41.7761C41.1093 42.2296 41.3796 42.6535 41.7493 43.0479C42.1191 43.4422 42.6074 43.7577 43.2142 43.9943C43.8305 44.2407 44.5796 44.3639 45.4613 44.3639C46.7793 44.3639 47.8649 44.0288 48.7182 43.3584C49.581 42.6979 50.0124 41.5888 50.0124 40.0312V35.876H49.7564C49.491 36.5069 49.0927 37.1033 48.5618 37.6652C48.0308 38.2272 47.3481 38.6856 46.5138 39.0405C45.6794 39.3954 44.6838 39.5728 43.5271 39.5728C41.8868 39.5728 40.3935 39.1785 39.0471 38.3898C37.7102 37.5913 36.6436 36.3738 35.8471 34.7373C35.0601 33.091 34.6667 31.0109 34.6667 28.497C34.6667 25.924 35.0696 23.7749 35.8756 22.0497C36.6815 20.3245 37.7529 19.0331 39.0898 18.1754C40.4361 17.3177 41.9105 16.8889 43.5129 16.8889C44.736 16.8889 45.76 17.1058 46.5849 17.5395C47.4098 17.9634 48.0735 18.4958 48.576 19.1366C49.088 19.7675 49.4815 20.3886 49.7564 20.9998H49.984V17.1846H56V40.1199C56 42.0522 55.5449 43.6689 54.6347 44.9702C53.7244 46.2715 52.4634 47.2475 50.8516 47.8981C49.2492 48.5586 47.405 48.8889 45.3191 48.8889ZM45.4471 34.8408C46.4237 34.8408 47.2486 34.5894 47.9218 34.0867C48.6044 33.574 49.1259 32.8445 49.4862 31.8981C49.856 30.9419 50.0409 29.7983 50.0409 28.4674C50.0409 27.1366 49.8607 25.9832 49.5004 25.0072C49.1401 24.0214 48.6187 23.2573 47.936 22.7151C47.2533 22.1729 46.4237 21.9018 45.4471 21.9018C44.4516 21.9018 43.6124 22.1828 42.9298 22.7447C42.2471 23.2968 41.7304 24.0657 41.3796 25.0516C41.0287 26.0374 40.8533 27.176 40.8533 28.4674C40.8533 29.7786 41.0287 30.9123 41.3796 31.8686C41.7398 32.815 42.2566 33.5494 42.9298 34.0719C43.6124 34.5845 44.4516 34.8408 45.4471 34.8408Z" fill="#EDF1FE"/>
<path d="M8.88889 48V16.8889H21.3446C23.6332 16.8889 25.542 17.2282 27.0712 17.9067C28.6003 18.5852 29.7496 19.5271 30.5193 20.7322C31.2889 21.9272 31.6737 23.3045 31.6737 24.8642C31.6737 26.0794 31.4307 27.1479 30.9446 28.0694C30.4585 28.9809 29.7901 29.7303 28.9395 30.3177C28.099 30.895 27.137 31.3051 26.0534 31.5482V31.852C27.2383 31.9026 28.3471 32.2368 29.38 32.8546C30.4231 33.4724 31.2686 34.3383 31.9167 35.4523C32.5648 36.5561 32.8889 37.8727 32.8889 39.4019C32.8889 41.0527 32.4788 42.5262 31.6585 43.8225C30.8484 45.1087 29.6484 46.1264 28.0585 46.8759C26.4686 47.6253 24.5091 48 22.18 48H8.88889ZM15.4661 42.6224H20.8281C22.661 42.6224 23.9977 42.273 24.8383 41.5742C25.6788 40.8653 26.099 39.9235 26.099 38.7487C26.099 37.8879 25.8914 37.1283 25.4762 36.4701C25.061 35.8118 24.4686 35.2953 23.699 34.9206C22.9395 34.5459 22.0332 34.3585 20.98 34.3585H15.4661V42.6224ZM15.4661 29.9076H20.342C21.2433 29.9076 22.0433 29.7506 22.742 29.4366C23.4509 29.1126 24.0079 28.6568 24.4129 28.0694C24.8281 27.4821 25.0357 26.7782 25.0357 25.9579C25.0357 24.8338 24.6357 23.9274 23.8357 23.2387C23.0458 22.5501 21.9218 22.2057 20.4636 22.2057H15.4661V29.9076Z" fill="#EDF1FE"/>
</svg>
