<svg width="50" height="50" viewBox="0 0 50 50" fill="none" xmlns="http://www.w3.org/2000/svg">
<g clip-path="url(#clip0_148_981)">
<path d="M50 25C50 38.8071 38.8071 50 25 50C11.1929 50 0 38.8071 0 25C0 11.1929 11.1929 0 25 0C38.8071 0 50 11.1929 50 25Z" fill="#FABE24"/>
<path fill-rule="evenodd" clip-rule="evenodd" d="M37.0847 23.2903L27.7097 13.9153C26.4893 12.6949 24.5107 12.6949 23.2903 13.9153L13.9153 23.2903C12.6949 24.5107 12.6949 26.4893 13.9153 27.7097C15.1357 28.9301 17.1143 28.9301 18.3347 27.7097L22.375 23.6694L22.375 34.875C22.375 36.6009 23.7741 38 25.5 38C27.2259 38 28.625 36.6009 28.625 34.875V23.6694L32.6653 27.7097C33.8857 28.9301 35.8643 28.9301 37.0847 27.7097C38.3051 26.4893 38.3051 24.5107 37.0847 23.2903Z" fill="#9233E9"/>
</g>
<defs>
<clipPath id="clip0_148_981">
<rect width="50" height="50" fill="white"/>
</clipPath>
</defs>
</svg>
