<svg width="45" height="46" viewBox="0 0 45 46" fill="none" xmlns="http://www.w3.org/2000/svg">
<g clip-path="url(#clip0_193_131)">
<path d="M45 23C45 35.4264 34.9264 45.5 22.5 45.5C10.0736 45.5 0 35.4264 0 23C0 10.5736 10.0736 0.5 22.5 0.5C34.9264 0.5 45 10.5736 45 23Z" fill="#2563EA"/>
<path fill-rule="evenodd" clip-rule="evenodd" d="M33.3762 21.4612L24.9387 13.0237C23.8403 11.9254 22.0596 11.9254 20.9612 13.0237L12.5237 21.4612C11.4254 22.5596 11.4254 24.3404 12.5237 25.4387C13.6221 26.5371 15.4028 26.5371 16.5012 25.4387L20.1375 21.8025L20.1374 31.8875C20.1374 33.4408 21.3966 34.7 22.9499 34.7C24.5033 34.7 25.7625 33.4408 25.7625 31.8875V21.8025L29.3987 25.4387C30.4971 26.5371 32.2778 26.5371 33.3762 25.4387C34.4745 24.3404 34.4745 22.5596 33.3762 21.4612Z" fill="#DAE9FD"/>
</g>
<defs>
<clipPath id="clip0_193_131">
<rect width="45" height="45" fill="white" transform="translate(0 0.5)"/>
</clipPath>
</defs>
</svg>
