<svg width="37" height="36" viewBox="0 0 37 36" fill="none" xmlns="http://www.w3.org/2000/svg">
<path fill-rule="evenodd" clip-rule="evenodd" d="M18.5149 0C8.55312 0 0.5 8.24997 0.5 18.4563C0.5 26.6148 5.65991 33.5207 12.8181 35.965C13.713 36.1487 14.0409 35.5679 14.0409 35.0792C14.0409 34.6514 14.0114 33.1847 14.0114 31.6566C9.00005 32.7569 7.95649 29.4565 7.95649 29.4565C7.15114 27.3175 5.95786 26.7678 5.95786 26.7678C4.31766 25.6371 6.07734 25.6371 6.07734 25.6371C7.89675 25.7594 8.85144 27.5316 8.85144 27.5316C10.4618 30.3426 13.0567 29.5484 14.1006 29.0594C14.2496 27.8676 14.7271 27.0426 15.2341 26.5844C11.2373 26.1565 7.03203 24.5676 7.03203 17.4783C7.03203 15.4616 7.74741 13.8116 8.88094 12.5283C8.7021 12.0701 8.07559 10.1752 9.06015 7.63909C9.06015 7.63909 10.5812 7.1501 14.011 9.53359C15.4794 9.12959 16.9937 8.92407 18.5149 8.92234C20.036 8.92234 21.5866 9.13646 23.0184 9.53359C26.4485 7.1501 27.9696 7.63909 27.9696 7.63909C28.9542 10.1752 28.3273 12.0701 28.1485 12.5283C29.3119 13.8116 29.9978 15.4616 29.9978 17.4783C29.9978 24.5676 25.7925 26.1258 21.7658 26.5844C22.4222 27.1649 22.9886 28.2648 22.9886 30.0066C22.9886 32.4816 22.9591 34.468 22.9591 35.0789C22.9591 35.5679 23.2873 36.1487 24.1818 35.9654C31.34 33.5204 36.4999 26.6148 36.4999 18.4563C36.5294 8.24997 28.4468 0 18.5149 0Z" fill="#312E80"/>
</svg>
