<svg width="37" height="36" viewBox="0 0 37 36" fill="none" xmlns="http://www.w3.org/2000/svg">
<path d="M27.5108 0C28.7437 0 29.905 0.236559 30.9946 0.709677C32.0842 1.1828 33.0376 1.82796 33.8548 2.64516C34.672 3.46237 35.3172 4.41577 35.7903 5.50538C36.2634 6.59498 36.5 7.75627 36.5 8.98925V26.9677C36.5 28.2007 36.2634 29.3692 35.7903 30.4731C35.3172 31.5771 34.672 32.5376 33.8548 33.3548C33.0376 34.172 32.0842 34.8172 30.9946 35.2903C29.905 35.7634 28.7437 36 27.5108 36H9.48925C8.25627 36 7.09498 35.7634 6.00538 35.2903C4.91577 34.8172 3.96237 34.172 3.14516 33.3548C2.32796 32.5376 1.6828 31.5771 1.20968 30.4731C0.736559 29.3692 0.5 28.2007 0.5 26.9677V8.98925C0.5 7.75627 0.736559 6.59498 1.20968 5.50538C1.6828 4.41577 2.32796 3.46237 3.14516 2.64516C3.96237 1.82796 4.91577 1.1828 6.00538 0.709677C7.09498 0.236559 8.25627 0 9.48925 0H27.5108ZM27.0806 13.5484C27.9122 12.9749 28.6434 12.2294 29.2742 11.3118C28.8728 11.4839 28.4642 11.6272 28.0484 11.7419C27.6326 11.8566 27.2097 11.9427 26.7796 12C27.7258 11.3978 28.3566 10.5806 28.672 9.54839C27.8118 10.0932 26.8943 10.4516 25.9194 10.6237C25.0591 9.70609 23.9839 9.24731 22.6935 9.24731C22.0914 9.24731 21.5251 9.36201 20.9946 9.5914C20.4642 9.82079 20.0054 10.1362 19.6183 10.5376C19.2312 10.9391 18.9229 11.405 18.6935 11.9355C18.4642 12.466 18.3495 13.0323 18.3495 13.6344C18.3495 13.8065 18.3566 13.9713 18.371 14.129C18.3853 14.2867 18.4068 14.4516 18.4355 14.6237C16.629 14.5376 14.9516 14.086 13.4032 13.2688C11.8548 12.4516 10.5358 11.3835 9.44624 10.0645C9.0448 10.724 8.84409 11.4552 8.84409 12.2581C8.84409 13.0036 9.0233 13.6918 9.38172 14.3226C9.74014 14.9534 10.2061 15.4695 10.7796 15.871C10.4355 15.871 10.0986 15.8208 9.76882 15.7204C9.43907 15.6201 9.11649 15.4982 8.80107 15.3548V15.3978C8.80107 16.4588 9.13799 17.3835 9.81183 18.172C10.4857 18.9606 11.3244 19.4695 12.328 19.6989C11.9265 19.7849 11.5394 19.828 11.1667 19.828H10.7581L10.3495 19.7419C10.6362 20.6308 11.1452 21.3548 11.8763 21.914C12.6075 22.4731 13.4606 22.767 14.4355 22.7957C13.69 23.3692 12.8513 23.828 11.9194 24.172C10.9875 24.5161 10.0197 24.6882 9.01613 24.6882C8.81541 24.6882 8.62903 24.681 8.45699 24.6667C8.28495 24.6523 8.1129 24.6308 7.94086 24.6021C8.91577 25.233 9.96953 25.7204 11.1022 26.0645C12.2348 26.4086 13.4176 26.5806 14.6505 26.5806C16.6577 26.5806 18.4355 26.2007 19.9839 25.4409C21.5323 24.681 22.8297 23.7061 23.8763 22.5161C24.9229 21.3262 25.7186 19.9928 26.2634 18.5161C26.8082 17.0394 27.0806 15.5699 27.0806 14.1075V13.5484Z" fill="#312E80"/>
</svg>
