<svg width="37" height="36" viewBox="0 0 37 36" fill="none" xmlns="http://www.w3.org/2000/svg">
<path d="M27.5108 0C28.7437 0 29.905 0.236559 30.9946 0.709677C32.0842 1.1828 33.0376 1.82796 33.8548 2.64516C34.672 3.46237 35.3172 4.41577 35.7903 5.50538C36.2634 6.59498 36.5 7.75627 36.5 8.98925V26.9677C36.5 28.2007 36.2634 29.3692 35.7903 30.4731C35.3172 31.5771 34.672 32.5376 33.8548 33.3548C33.0376 34.172 32.0842 34.8172 30.9946 35.2903C29.905 35.7634 28.7437 36 27.5108 36H9.48925C8.25627 36 7.09498 35.7634 6.00538 35.2903C4.91577 34.8172 3.96237 34.172 3.14516 33.3548C2.32796 32.5376 1.6828 31.5771 1.20968 30.4731C0.736559 29.3692 0.5 28.2007 0.5 26.9677V8.98925C0.5 7.75627 0.736559 6.59498 1.20968 5.50538C1.6828 4.41577 2.32796 3.46237 3.14516 2.64516C3.96237 1.82796 4.91577 1.1828 6.00538 0.709677C7.09498 0.236559 8.25627 0 9.48925 0H27.5108ZM12.8871 13.5054H8.37097V28.129H12.8871V13.5054ZM10.6505 12.3441C11.2527 12.3441 11.776 12.129 12.2204 11.6989C12.6649 11.2688 12.8871 10.7384 12.8871 10.1075C12.8871 9.4767 12.6649 8.94624 12.2204 8.51613C11.776 8.08602 11.2527 7.87097 10.6505 7.87097C10.0197 7.87097 9.48208 8.08602 9.03763 8.51613C8.59319 8.94624 8.37097 9.4767 8.37097 10.1075C8.37097 10.7384 8.59319 11.2688 9.03763 11.6989C9.48208 12.129 10.0197 12.3441 10.6505 12.3441ZM28.629 19.6559C28.629 18.6237 28.3423 17.6129 27.7688 16.6237C27.1953 15.6344 26.4498 14.8817 25.5323 14.3656C24.7007 13.9068 23.733 13.6631 22.629 13.6344C21.5251 13.6057 20.5287 13.7921 19.6398 14.1935V13.5054H15.1237V28.129H19.6398V19.1828L21.4892 18.2796C21.7186 18.1649 22.034 18.1075 22.4355 18.1075C22.8369 18.1075 23.138 18.1792 23.3387 18.3226C23.5108 18.4086 23.6828 18.595 23.8548 18.8817C24.0269 19.1685 24.1129 19.4265 24.1129 19.6559V28.129H28.629V19.6559Z" fill="#312E80"/>
</svg>
